<?xml version="1.0" encoding="UTF-8"?>
<svg xmlns="http://www.w3.org/2000/svg" viewBox="0 0 275.520000 219.840000" width="400" height="319">
<g transform="translate(0.000000,219.840000) scale(0.012000,-0.012000)" fill="#1a2b25" stroke="none">
<path d="M3475 11680 c-77 -4 -167 -13 -200 -18 -123 -22 -417 -92 -447 -108
-17 -9 -65 -26 -107 -39 -83 -25 -238 -86 -286 -112 -16 -9 -61 -33 -100 -53
-117 -61 -297 -170 -329 -199 -12 -10 -32 -24 -46 -31 -44 -23 -250 -199 -356
-304 -143 -143 -305 -345 -401 -504 -21 -35 -55 -91 -75 -125 -21 -34 -49 -87
-63 -117 -14 -30 -41 -86 -60 -125 -18 -38 -37 -81 -41 -95 -3 -14 -17 -46
-30 -72 -14 -26 -31 -78 -40 -115 -8 -38 -28 -100 -44 -140 -16 -39 -34 -109
-40 -155 -6 -46 -20 -114 -30 -153 -31 -113 -42 -252 -44 -545 -1 -304 12
-477 49 -635 13 -55 27 -125 30 -155 4 -30 18 -83 32 -117 13 -34 32 -90 42
-125 28 -93 78 -224 117 -303 19 -38 41 -86 49 -105 35 -83 211 -367 277 -448
78 -98 244 -286 302 -344 63 -63 279 -242 330 -273 18 -11 46 -31 63 -45 27
-22 70 -48 165 -102 17 -9 56 -32 87 -51 31 -19 67 -38 81 -42 14 -4 52 -22
85 -40 33 -18 80 -38 105 -45 25 -7 62 -21 83 -31 71 -37 312 -111 407 -125
52 -9 122 -23 155 -34 123 -37 481 -54 845 -40 190 8 277 15 340 30 47 11 138
29 203 40 65 11 144 31 176 44 31 13 82 29 112 36 30 7 85 28 124 47 38 18 75
33 83 33 17 0 204 91 270 132 60 38 206 135 273 181 82 57 231 187 383 334
129 125 149 149 149 176 0 21 -7 35 -23 46 -21 14 -412 405 -752 754 -79 81
-152 147 -162 147 -25 0 -56 -18 -92 -54 -78 -76 -200 -175 -255 -205 -19 -11
-41 -27 -49 -36 -8 -9 -32 -26 -54 -37 -22 -11 -56 -33 -76 -48 -19 -16 -46
-31 -60 -35 -14 -4 -52 -22 -85 -40 -33 -18 -82 -38 -109 -44 -27 -7 -66 -21
-87 -32 -64 -32 -155 -48 -345 -60 -133 -8 -219 -8 -320 0 -149 12 -211 25
-308 65 -33 14 -79 30 -101 35 -22 6 -56 22 -74 36 -19 13 -50 30 -70 36 -20
7 -58 29 -86 50 -27 21 -70 53 -94 71 -98 73 -284 274 -320 345 -11 23 -26 45
-31 48 -6 4 -27 39 -45 77 -19 39 -39 76 -45 83 -6 7 -30 71 -55 143 -76 225
-112 479 -101 717 8 165 29 327 55 422 32 114 84 255 114 304 15 25 27 50 27
56 0 5 13 28 29 50 16 22 36 55 46 73 41 78 269 328 351 384 82 56 114 76 179
114 39 22 81 43 95 47 14 4 45 18 70 30 25 13 109 36 185 51 117 23 166 28
300 29 133 0 187 -5 320 -29 98 -17 177 -37 205 -51 25 -13 65 -28 90 -35 24
-7 73 -29 109 -51 36 -21 68 -39 73 -39 7 0 67 -40 206 -138 47 -34 179 -151
257 -229 47 -47 83 -55 113 -25 9 10 55 60 102 112 47 51 101 109 120 129 39
40 238 254 340 365 151 164 254 274 304 326 63 65 79 94 71 122 -4 11 -59 72
-124 135 -192 190 -354 314 -609 463 -68 39 -147 80 -176 90 -28 9 -70 27 -91
38 -22 11 -74 30 -115 42 -41 12 -100 32 -130 45 -30 13 -104 33 -165 44 -60
12 -146 31 -190 42 -44 11 -127 24 -185 29 -146 14 -686 20 -855 10z"/>
<path d="M8585 11680 c-147 -9 -228 -21 -331 -49 -39 -11 -106 -27 -149 -36
-44 -9 -95 -25 -115 -35 -19 -10 -64 -27 -100 -38 -121 -37 -375 -156 -445
-207 -16 -12 -50 -32 -75 -43 -41 -20 -79 -46 -163 -114 -16 -13 -41 -32 -57
-43 -126 -90 -324 -279 -429 -409 -88 -109 -132 -168 -160 -212 -27 -43 -66
-102 -111 -169 -15 -22 -38 -63 -50 -92 -12 -29 -28 -57 -35 -63 -7 -6 -23
-36 -36 -68 -12 -31 -33 -73 -45 -92 -13 -19 -28 -57 -35 -85 -7 -27 -24 -75
-39 -105 -15 -30 -35 -89 -45 -130 -10 -41 -28 -97 -40 -125 -28 -63 -31 -78
-49 -206 -8 -57 -22 -124 -31 -149 -24 -68 -35 -246 -35 -585 0 -347 10 -502
39 -590 10 -33 26 -109 35 -169 9 -59 28 -137 42 -172 14 -35 34 -95 45 -135
11 -39 29 -89 40 -111 11 -21 29 -67 39 -101 11 -34 42 -102 69 -152 28 -49
60 -110 73 -135 25 -49 189 -300 211 -322 7 -7 32 -39 56 -71 23 -32 77 -94
119 -139 78 -82 272 -256 353 -316 24 -18 64 -48 89 -67 25 -19 63 -44 86 -55
22 -11 51 -28 65 -38 38 -29 177 -110 202 -118 12 -4 48 -20 80 -36 32 -16 93
-42 135 -57 42 -16 100 -38 127 -49 111 -46 285 -95 399 -113 67 -11 141 -26
166 -33 70 -22 99 -25 345 -36 270 -12 713 2 798 26 29 8 112 25 185 39 138
25 362 90 447 130 28 13 64 27 80 30 17 4 62 24 100 45 39 20 81 41 94 45 13
4 51 25 84 46 33 22 66 39 73 39 6 0 35 17 62 38 28 20 64 45 79 55 27 17 79
55 200 146 78 60 398 380 407 408 4 13 4 29 -1 36 -4 8 -109 103 -233 212
-124 110 -277 246 -340 303 -63 58 -131 116 -150 131 -19 14 -66 56 -105 93
-38 38 -78 68 -88 68 -11 0 -54 -31 -96 -68 -96 -86 -212 -175 -285 -219 -15
-10 -54 -34 -86 -54 -31 -20 -68 -40 -81 -44 -13 -4 -49 -22 -79 -40 -30 -19
-84 -41 -119 -49 -35 -9 -79 -25 -96 -36 -18 -11 -74 -26 -134 -35 -56 -8
-123 -20 -149 -26 -57 -12 -367 -31 -402 -24 -14 3 -61 9 -105 14 -135 16
-305 51 -344 71 -21 10 -67 28 -104 40 -36 12 -83 35 -103 51 -20 16 -43 29
-50 29 -7 0 -32 15 -56 33 -24 18 -59 42 -78 54 -33 21 -135 118 -198 190 -55
63 -167 240 -191 303 -8 19 -26 60 -41 90 -15 30 -39 99 -54 153 -27 104 -25
126 14 147 12 7 674 10 2018 10 1890 0 2001 1 2021 18 21 16 22 26 28 282 6
318 -8 600 -36 720 -11 47 -27 141 -35 211 -9 69 -24 150 -34 180 -11 29 -29
97 -42 149 -13 52 -34 119 -47 149 -13 30 -30 81 -39 114 -8 33 -27 83 -41
111 -14 28 -34 74 -44 104 -10 29 -27 66 -38 81 -11 16 -25 41 -31 57 -24 63
-166 292 -245 394 -19 25 -49 65 -67 90 -68 94 -269 289 -414 403 -27 21 -69
54 -94 74 -25 20 -58 42 -75 49 -16 6 -41 21 -55 32 -14 10 -50 32 -80 47 -30
15 -66 35 -80 45 -14 9 -43 23 -65 30 -22 7 -60 23 -83 37 -24 14 -72 33 -105
43 -34 9 -89 29 -123 43 -34 14 -107 35 -162 47 -56 11 -112 24 -125 29 -130
50 -599 73 -1002 51z m545 -1310 c36 -10 100 -28 142 -39 124 -33 304 -132
402 -221 79 -71 139 -136 172 -187 18 -28 38 -55 44 -58 6 -4 21 -28 35 -55
13 -27 36 -65 49 -85 14 -19 28 -50 31 -68 4 -18 20 -55 35 -82 16 -28 37 -91
48 -140 11 -50 29 -123 41 -162 28 -96 27 -128 -3 -148 -21 -14 -154 -16
-1242 -15 -1311 0 -1252 -2 -1269 50 -4 12 4 53 19 98 14 42 32 109 41 147 8
39 29 97 45 130 16 33 39 80 50 105 27 60 87 165 131 231 56 84 215 246 293
299 104 72 246 137 370 171 60 16 113 32 119 36 17 10 200 20 292 16 50 -3
119 -13 155 -23z"/>
<path d="M13900 11670 c-85 -5 -189 -16 -230 -25 -41 -9 -129 -27 -195 -40
-66 -12 -147 -34 -180 -48 -33 -13 -76 -28 -95 -32 -19 -4 -64 -22 -100 -40
-36 -18 -82 -38 -103 -44 -37 -12 -110 -52 -196 -108 -24 -15 -63 -39 -86 -53
-64 -38 -105 -74 -241 -209 -122 -121 -170 -181 -227 -285 -16 -28 -37 -60
-47 -71 -11 -11 -26 -41 -35 -65 -8 -25 -26 -65 -39 -90 -13 -25 -33 -80 -45
-123 -12 -44 -28 -92 -36 -107 -8 -16 -24 -98 -35 -182 -28 -213 -27 -480 1
-666 12 -80 31 -160 44 -192 13 -30 29 -75 35 -100 6 -25 22 -61 34 -80 12
-19 28 -51 36 -70 7 -19 25 -50 39 -69 14 -18 40 -53 56 -76 17 -24 43 -60 59
-82 46 -59 195 -200 251 -238 28 -18 57 -41 65 -50 7 -9 34 -27 59 -40 25 -12
54 -32 65 -44 10 -11 40 -27 66 -36 26 -9 56 -25 65 -35 10 -11 43 -29 74 -40
31 -12 72 -31 91 -42 37 -21 138 -61 280 -109 47 -16 101 -37 120 -48 19 -10
71 -26 115 -36 44 -9 107 -28 140 -41 33 -13 96 -32 140 -43 72 -17 140 -37
335 -101 36 -12 101 -32 145 -46 116 -36 298 -111 369 -152 33 -20 79 -52 102
-72 22 -20 47 -41 55 -46 8 -5 35 -40 59 -79 42 -64 45 -74 49 -147 5 -120 -4
-156 -59 -239 -68 -103 -134 -151 -279 -202 -116 -42 -116 -42 -391 -41 -274
0 -275 0 -400 31 -69 17 -147 34 -175 38 -27 4 -81 20 -120 35 -38 15 -94 33
-123 39 -29 6 -78 24 -110 40 -31 15 -80 36 -109 45 -28 10 -63 26 -77 37 -14
11 -51 29 -82 39 -32 11 -78 33 -103 49 -25 15 -64 37 -86 48 -79 39 -160 86
-180 103 -11 10 -38 27 -61 38 -22 11 -47 28 -54 37 -23 27 -119 85 -141 85
-35 0 -58 -19 -84 -68 -14 -26 -36 -61 -48 -78 -12 -18 -30 -45 -39 -60 -10
-16 -32 -50 -50 -76 -64 -92 -78 -114 -98 -155 -11 -23 -31 -55 -43 -70 -12
-15 -43 -59 -68 -98 -25 -38 -59 -90 -75 -114 -34 -52 -91 -142 -119 -190 -11
-19 -35 -50 -52 -69 -18 -19 -33 -45 -33 -57 0 -32 51 -76 200 -174 25 -16 56
-38 70 -49 14 -11 48 -31 77 -45 28 -15 55 -31 58 -37 4 -6 32 -23 63 -38 32
-16 75 -40 97 -55 22 -15 43 -27 47 -27 4 0 81 -36 170 -79 90 -44 183 -85
208 -91 25 -7 59 -20 75 -30 17 -10 66 -29 110 -41 44 -12 93 -28 109 -36 29
-15 328 -95 446 -119 36 -7 85 -13 110 -14 25 0 99 -12 165 -27 113 -24 140
-26 450 -30 321 -5 334 -4 470 21 77 14 194 32 260 41 66 9 135 23 153 30 18
8 69 24 115 36 45 12 100 31 122 41 22 11 71 31 110 44 38 13 85 35 105 48 19
12 57 33 85 45 27 12 59 30 70 40 11 10 37 27 58 40 74 42 203 153 293 252 92
103 133 154 152 192 8 18 27 48 42 67 14 19 33 51 40 70 8 19 24 51 36 70 36
55 111 310 141 475 24 132 27 176 27 365 0 198 -2 225 -27 335 -31 138 -100
336 -133 381 -12 16 -29 46 -37 65 -17 40 -63 99 -173 223 -80 91 -119 125
-266 234 -91 67 -130 92 -218 142 -36 20 -74 41 -85 47 -69 39 -389 183 -406
183 -8 0 -42 13 -76 29 -33 16 -96 39 -138 50 -42 12 -97 32 -123 45 -26 13
-73 29 -105 36 -32 6 -79 21 -105 32 -26 12 -87 34 -137 49 -124 38 -305 104
-351 127 -22 11 -61 27 -89 35 -51 15 -181 79 -269 132 -27 17 -77 56 -111 88
-46 42 -71 76 -95 128 -30 65 -32 77 -28 148 3 57 12 92 33 136 35 74 108 145
195 189 36 18 79 40 95 49 49 25 247 38 435 27 169 -9 221 -17 300 -45 25 -9
90 -27 146 -40 56 -14 123 -35 150 -48 27 -14 71 -30 98 -36 27 -7 69 -22 95
-35 25 -13 57 -27 71 -30 25 -8 186 -82 250 -116 19 -11 67 -34 106 -53 39
-19 98 -51 130 -72 32 -21 69 -37 82 -37 44 0 61 24 194 270 26 48 59 112 73
142 14 30 32 62 40 70 8 9 31 48 50 86 20 38 51 96 69 129 19 33 48 87 65 119
17 33 42 73 55 90 13 17 33 53 45 81 12 27 29 57 37 66 27 30 13 60 -46 101
-30 22 -70 45 -87 53 -18 8 -54 30 -79 49 -26 20 -51 36 -56 36 -5 0 -75 32
-155 71 -183 89 -256 120 -413 176 -129 46 -171 59 -300 92 -41 10 -93 26
-116 34 -34 13 -309 65 -514 97 -83 13 -435 18 -610 10z"/>
<path d="M1545 4484 c-106 -15 -159 -31 -246 -75 -109 -55 -201 -132 -270
-224 -24 -33 -47 -66 -51 -75 -74 -161 -104 -303 -95 -445 9 -130 30 -218 77
-315 85 -178 166 -257 370 -360 79 -40 160 -54 310 -55 172 0 233 13 362 80
90 46 203 126 212 151 8 21 -10 60 -36 78 -35 25 -71 20 -104 -15 -50 -54
-144 -108 -243 -140 -90 -29 -103 -31 -206 -26 -83 4 -126 11 -177 29 -65 24
-159 80 -207 122 -58 52 -128 155 -163 242 -69 170 -72 339 -8 483 15 36 31
78 35 93 7 26 105 149 156 194 13 12 62 42 109 66 111 59 203 74 349 60 85 -9
116 -17 184 -49 45 -21 106 -59 135 -85 60 -55 96 -62 130 -25 24 25 41 67 35
84 -13 35 -262 175 -343 193 -58 12 -263 21 -315 14z"/>
<path d="M16535 4474 c-79 -16 -216 -83 -297 -144 -56 -42 -117 -112 -172
-195 -18 -27 -52 -106 -76 -175 -43 -125 -43 -125 -41 -263 1 -113 5 -149 22
-195 11 -31 29 -82 38 -112 39 -122 175 -287 291 -352 98 -55 124 -65 212 -87
115 -28 264 -28 401 0 79 16 126 33 216 79 71 36 131 75 156 100 39 40 39 40
38 311 -1 233 -3 274 -17 287 -13 14 -54 16 -288 16 -247 1 -275 -1 -290 -16
-22 -22 -23 -56 -2 -86 15 -21 20 -22 209 -22 106 0 201 -3 210 -6 8 -4 22
-19 30 -35 20 -38 21 -286 1 -332 -29 -67 -114 -123 -247 -161 -30 -9 -94 -20
-144 -25 -126 -13 -236 5 -340 54 -61 29 -96 55 -150 109 -102 104 -139 170
-170 299 -33 142 -33 241 1 372 19 75 37 117 71 170 25 39 67 92 92 118 59 61
150 121 226 148 137 48 361 31 493 -38 37 -19 84 -48 105 -65 25 -19 44 -27
57 -23 20 6 80 69 80 84 0 23 -75 77 -168 123 -89 43 -118 53 -205 64 -129 17
-252 16 -342 -2z"/>
<path d="M6074 4466 c-19 -9 -35 -26 -44 -47 -22 -59 -100 -232 -126 -282 -13
-26 -36 -78 -49 -114 -14 -37 -29 -71 -34 -77 -5 -6 -26 -51 -46 -101 -21 -49
-66 -148 -101 -220 -35 -71 -64 -135 -64 -141 0 -6 -36 -89 -81 -185 -105
-227 -106 -229 -130 -267 -20 -30 -20 -34 -5 -57 13 -19 25 -25 55 -25 26 0
46 7 64 24 26 24 58 80 72 126 4 14 30 71 57 127 29 62 59 109 73 119 22 14
74 17 413 18 218 1 397 -2 409 -7 12 -6 29 -28 38 -50 9 -23 25 -53 36 -69 11
-15 28 -51 38 -80 24 -71 68 -158 94 -185 15 -17 32 -23 62 -23 22 0 46 5 53
12 21 21 13 72 -16 114 -16 21 -41 73 -57 114 -15 41 -34 84 -42 96 -7 11 -21
45 -31 75 -11 29 -31 71 -46 93 -14 21 -31 57 -37 80 -6 22 -21 59 -34 82 -13
22 -36 72 -50 110 -14 38 -33 79 -41 92 -8 13 -31 59 -50 102 -18 44 -50 117
-70 163 -19 45 -60 132 -89 192 -30 61 -61 127 -69 148 -22 55 -84 72 -152 43z
m129 -312 c22 -49 60 -134 84 -189 25 -55 60 -131 79 -170 18 -38 40 -89 49
-113 8 -24 24 -56 35 -73 29 -39 24 -89 -10 -106 -36 -18 -584 -18 -620 0 -43
22 -38 58 30 202 121 252 156 331 205 459 12 33 32 68 44 77 38 31 60 12 104
-87z"/>
<path d="M8420 4469 c-13 -6 -28 -15 -32 -22 -5 -7 -8 -262 -7 -567 0 -305 -2
-563 -6 -572 -4 -10 -16 -18 -27 -18 -32 0 -97 58 -123 109 -13 26 -31 54 -41
61 -9 8 -47 55 -85 105 -37 49 -86 113 -108 140 -65 81 -102 127 -166 210 -94
122 -105 136 -190 240 -44 53 -93 116 -110 140 -28 39 -74 96 -124 153 -16 17
-31 22 -69 22 -67 0 -84 -19 -81 -96 1 -33 2 -354 0 -715 -1 -361 1 -664 5
-673 7 -19 43 -36 74 -36 10 0 28 8 40 18 23 19 23 19 22 583 0 310 2 572 4
582 13 43 105 -6 141 -77 9 -17 45 -64 79 -104 35 -40 72 -85 81 -100 9 -15
43 -56 74 -92 31 -36 64 -78 74 -95 11 -16 35 -49 55 -72 53 -62 144 -181 190
-247 8 -12 32 -41 53 -66 38 -43 59 -68 131 -155 18 -22 46 -60 63 -85 41 -61
64 -80 104 -86 25 -4 41 -1 57 13 23 18 23 18 23 747 0 578 -3 732 -13 742
-19 17 -60 23 -88 13z"/>
<path d="M12353 4473 c-12 -2 -27 -10 -33 -18 -8 -10 -11 -168 -11 -581 0
-395 -3 -572 -11 -581 -6 -7 -19 -13 -29 -13 -24 0 -86 55 -118 105 -27 42
-172 234 -242 320 -22 28 -59 74 -81 104 -23 30 -64 82 -92 115 -28 34 -60 75
-70 91 -11 17 -45 59 -76 95 -31 36 -80 97 -109 135 -70 95 -142 184 -165 206
-14 13 -35 19 -66 19 -25 0 -54 -6 -64 -13 -17 -13 -18 -53 -18 -742 1 -593 3
-730 14 -741 7 -8 27 -16 44 -20 21 -4 36 0 53 13 23 19 23 19 26 597 2 383 6
581 13 588 6 6 21 8 35 4 36 -9 75 -43 97 -86 11 -21 50 -75 87 -121 38 -46
77 -96 88 -110 28 -36 97 -125 142 -181 21 -25 77 -97 125 -160 49 -62 100
-129 115 -148 16 -19 56 -71 91 -115 66 -85 148 -185 197 -241 38 -44 89 -55
124 -27 23 19 23 19 23 748 -1 577 -4 731 -14 741 -17 15 -47 22 -75 17z"/>
<path d="M17618 4469 c-39 -15 -36 -47 10 -100 21 -24 64 -82 95 -129 84 -127
114 -170 150 -219 17 -24 48 -68 67 -97 42 -62 95 -139 149 -214 107 -147 96
-96 99 -429 2 -287 3 -297 23 -313 27 -23 81 -23 109 0 21 17 22 22 24 297 2
280 2 280 28 331 15 27 34 57 44 65 17 14 80 105 189 274 17 25 40 58 51 73
12 15 69 98 128 186 59 87 120 171 136 186 59 55 26 111 -56 95 -58 -10 -83
-40 -269 -315 -66 -98 -123 -180 -196 -285 -22 -33 -50 -77 -60 -97 -20 -39
-52 -55 -86 -44 -11 3 -39 37 -63 74 -24 37 -61 90 -82 118 -21 28 -38 56 -38
62 0 6 -13 26 -28 44 -16 18 -64 87 -108 152 -145 218 -161 241 -187 264 -29
27 -89 37 -129 21z"/>
<path d="M2617 4457 c-17 -11 -18 -62 -18 -741 1 -442 4 -733 10 -739 21 -21
117 -26 526 -27 374 0 433 2 453 16 28 20 30 74 3 98 -18 16 -54 18 -410 19
-390 2 -390 2 -413 25 -23 23 -23 23 -25 660 -2 350 -3 645 -3 654 0 9 -7 24
-16 32 -19 19 -83 21 -107 3z"/>
<path d="M3977 4457 c-16 -11 -17 -64 -18 -740 0 -400 3 -731 6 -737 16 -25
100 -30 563 -30 483 0 483 0 507 25 14 13 25 33 25 45 0 11 -9 29 -20 40 -19
19 -33 20 -449 20 -407 0 -430 1 -452 19 -24 19 -24 21 -27 254 -3 235 -3 235
22 263 24 29 24 29 393 31 202 2 373 3 380 3 22 0 43 32 43 65 0 67 10 65
-411 65 -380 0 -380 0 -404 25 -25 24 -25 24 -25 250 0 131 4 234 10 245 20
38 63 42 491 39 392 -2 412 -2 425 16 20 27 17 79 -4 98 -17 15 -68 17 -528
17 -393 0 -514 -3 -527 -13z"/>
<path d="M9707 4458 c-15 -12 -17 -72 -17 -743 -1 -730 -1 -730 20 -747 20
-16 65 -17 532 -18 464 0 513 1 530 16 23 22 24 76 0 97 -17 15 -63 17 -451
17 -430 0 -462 2 -483 34 -12 17 -10 474 2 496 5 10 24 23 41 29 21 7 156 11
395 11 351 0 365 1 384 20 28 28 25 64 -6 89 -24 19 -40 20 -399 21 -206 0
-380 3 -388 6 -31 12 -37 54 -37 278 0 205 2 226 19 247 19 24 19 24 462 26
486 2 472 1 472 62 0 17 -8 40 -18 51 -18 20 -30 20 -530 20 -393 0 -515 -3
-528 -12z"/>
<path d="M12967 4452 c-16 -17 -17 -83 -17 -738 0 -606 2 -723 14 -740 14 -18
33 -19 523 -22 398 -2 513 1 533 11 19 9 26 22 28 49 2 28 -2 40 -20 52 -20
14 -75 16 -455 16 -413 0 -434 1 -452 19 -26 26 -32 91 -29 314 4 263 -39 239
429 236 344 -2 370 -1 389 16 25 23 26 76 2 98 -17 15 -59 17 -400 17 -382 0
-382 0 -399 27 -15 22 -18 57 -21 224 -3 109 -1 215 2 234 4 20 16 45 27 56
20 20 32 20 427 19 224 -1 417 -1 430 -1 29 1 62 35 62 65 0 15 -11 33 -26 45
-26 21 -36 21 -529 21 -474 0 -503 -1 -518 -18z"/>
<path d="M14431 4456 c-8 -9 -11 -217 -11 -742 -1 -729 -1 -729 21 -746 28
-24 84 -23 108 1 17 17 19 38 19 270 1 159 5 258 12 271 6 11 23 23 38 27 15
5 112 8 216 8 188 0 188 0 228 -45 21 -25 51 -61 66 -82 44 -59 179 -240 209
-279 16 -20 51 -66 78 -102 28 -36 60 -70 73 -76 32 -15 104 -14 126 2 26 19
14 50 -43 111 -50 55 -89 103 -136 171 -16 24 -60 81 -96 127 -80 103 -121
171 -114 189 8 20 35 36 86 49 63 17 161 83 215 147 55 64 73 118 81 244 5 71
2 100 -15 155 -15 48 -36 88 -69 129 -41 51 -63 67 -143 108 -52 26 -126 54
-165 62 -54 11 -150 15 -421 15 -284 0 -354 -3 -363 -14z m791 -144 c93 -33
138 -63 187 -126 46 -58 46 -59 49 -145 2 -48 -1 -106 -7 -128 -6 -23 -30 -64
-54 -93 -33 -40 -62 -61 -137 -98 -95 -47 -95 -47 -365 -44 -148 1 -278 5
-288 8 -9 3 -21 13 -26 23 -12 21 -17 559 -6 585 17 40 55 45 330 42 231 -3
266 -6 317 -24z"/>
<path d="M2940 2135 c-83 -10 -122 -20 -183 -49 -83 -38 -148 -79 -208 -130
-47 -40 -122 -133 -147 -182 -11 -22 -29 -57 -41 -79 -11 -22 -30 -76 -42
-120 -16 -60 -22 -111 -22 -205 -1 -97 4 -144 20 -210 12 -47 42 -124 66 -172
88 -171 226 -291 407 -354 52 -18 136 -38 187 -44 77 -10 108 -9 191 4 226 36
382 128 515 305 44 59 63 97 119 251 25 68 35 254 19 355 -22 140 -123 341
-215 425 -48 44 -161 130 -171 130 -4 0 -39 14 -78 32 -49 21 -104 35 -172 44
-115 16 -107 16 -245 -1z m249 -135 c76 -13 186 -67 254 -124 56 -48 137 -146
165 -202 11 -22 32 -75 47 -119 25 -75 27 -88 23 -210 -4 -119 -8 -138 -39
-220 -20 -50 -56 -119 -83 -155 -44 -61 -159 -170 -179 -170 -4 0 -43 -16 -85
-35 -100 -47 -193 -61 -302 -46 -92 12 -218 63 -283 114 -75 59 -147 141 -187
213 -45 81 -80 219 -80 320 0 34 9 106 20 160 16 76 30 115 62 167 23 38 73
101 113 141 87 88 198 153 283 165 82 12 197 12 271 1z"/>
<path d="M1250 2130 c-65 -14 -163 -67 -219 -120 -27 -25 -65 -75 -85 -111
-35 -64 -36 -70 -36 -168 0 -100 1 -105 36 -168 25 -44 57 -81 100 -117 54
-45 81 -58 191 -94 70 -24 171 -51 223 -61 89 -18 215 -65 274 -104 14 -10 40
-45 57 -78 42 -85 43 -144 1 -226 -33 -64 -55 -84 -137 -125 -74 -38 -145 -49
-249 -42 -72 5 -111 14 -188 45 -54 21 -136 64 -183 94 -47 30 -92 55 -101 55
-24 0 -64 -47 -64 -74 0 -54 132 -144 289 -197 145 -49 335 -60 469 -28 76 19
164 63 215 109 32 28 61 69 88 121 37 74 39 84 39 169 0 83 -3 96 -34 158 -62
123 -179 198 -391 249 -55 13 -158 42 -228 64 -102 32 -137 48 -169 77 -22 20
-53 59 -69 87 -21 37 -29 63 -29 100 0 40 8 63 38 114 30 52 49 71 99 101 34
20 79 40 100 44 60 9 197 7 255 -5 65 -13 206 -79 232 -108 23 -25 48 -27 86
-4 32 18 53 57 45 82 -10 30 -131 96 -269 148 -48 17 -320 27 -386 13z"/>
<path d="M6703 2129 c-12 -4 -26 -17 -32 -28 -7 -13 -11 -171 -11 -473 0 -263
-4 -480 -11 -518 -5 -36 -26 -99 -45 -141 -27 -58 -49 -88 -92 -126 -71 -62
-175 -111 -267 -125 -95 -15 -191 2 -293 52 -59 28 -91 52 -134 99 -43 47 -62
80 -83 139 -15 42 -32 111 -36 152 -5 41 -9 265 -8 498 1 373 -1 426 -15 447
-13 20 -25 25 -56 25 -31 0 -43 -5 -56 -25 -14 -22 -16 -76 -12 -532 4 -453 6
-513 22 -553 9 -25 26 -68 36 -97 25 -69 87 -150 163 -213 47 -38 85 -58 157
-82 91 -32 102 -33 245 -33 144 0 154 2 245 33 145 51 242 136 309 272 65 130
64 126 68 675 3 391 1 505 -9 524 -15 28 -54 42 -85 30z"/>
<path d="M9871 2129 c-60 -10 -215 -76 -264 -111 -46 -34 -201 -192 -214 -219
-6 -13 -29 -62 -51 -109 -36 -76 -42 -98 -53 -208 -9 -96 -9 -149 0 -240 9
-93 18 -130 41 -177 16 -33 36 -77 44 -98 8 -20 34 -60 58 -89 65 -77 135
-148 146 -148 6 0 25 -12 42 -26 42 -35 187 -89 296 -110 77 -14 103 -15 194
-4 124 14 261 57 343 109 57 35 155 127 209 194 15 19 48 76 73 128 36 75 48
115 61 199 36 236 -11 452 -133 620 -82 112 -208 207 -348 262 -75 29 -89 31
-235 34 -85 2 -179 -1 -209 -7z m302 -129 c31 -6 87 -25 124 -43 70 -32 167
-104 192 -141 8 -12 29 -37 46 -56 35 -37 89 -151 112 -235 18 -67 18 -255 -1
-325 -26 -97 -91 -221 -144 -275 -82 -84 -133 -120 -225 -159 -96 -42 -206
-61 -297 -53 -30 3 -94 21 -142 40 -146 58 -283 177 -330 287 -11 25 -31 69
-45 97 -51 105 -54 324 -7 439 14 32 34 83 45 112 15 38 43 75 103 136 60 62
101 93 156 121 41 21 98 44 125 51 63 15 213 17 288 4z"/>
<path d="M13319 2130 c-59 -10 -163 -63 -216 -110 -23 -20 -59 -61 -79 -91
-44 -65 -58 -140 -50 -254 5 -74 9 -85 49 -143 65 -92 132 -136 285 -184 70
-21 165 -46 212 -54 112 -20 251 -85 302 -142 58 -64 72 -142 43 -239 -11 -37
-28 -62 -61 -93 -25 -23 -75 -55 -110 -72 -61 -29 -73 -31 -182 -31 -112 0
-122 2 -223 40 -71 26 -133 58 -187 96 -45 31 -89 57 -99 57 -24 0 -73 -50
-73 -75 0 -59 194 -174 370 -218 66 -16 116 -21 220 -21 114 0 145 4 199 23
105 36 143 58 198 112 41 40 59 68 83 130 42 108 41 187 -1 298 -28 74 -36 85
-92 128 -34 26 -90 57 -125 70 -35 13 -75 29 -90 37 -15 7 -70 23 -122 35 -52
11 -146 38 -209 58 -92 31 -123 46 -162 81 -26 23 -57 62 -68 85 -23 47 -27
119 -10 163 19 52 97 132 156 160 45 22 74 29 142 32 48 2 118 -1 157 -7 92
-14 209 -64 254 -107 20 -19 43 -34 52 -34 18 0 88 74 88 93 0 20 -12 32 -71
69 -94 60 -187 96 -279 107 -95 12 -232 13 -301 1z"/>
<path d="M4284 2116 c-18 -14 -19 -36 -24 -718 -3 -387 -1 -718 3 -736 5 -20
17 -36 30 -41 27 -10 938 -13 953 -3 35 23 39 87 7 114 -11 9 -104 11 -389 9
-390 -3 -434 1 -454 39 -6 12 -10 256 -10 662 0 635 0 645 -20 666 -24 25 -67
29 -96 8z"/>
<path d="M7166 2115 c-28 -14 -34 -79 -10 -106 16 -18 33 -19 231 -19 235 0
265 -6 277 -56 4 -15 6 -307 5 -649 -1 -463 2 -627 10 -644 7 -12 24 -26 38
-32 32 -12 73 6 90 41 10 19 12 149 12 555 -1 831 -3 752 26 771 22 14 55 16
235 15 199 -2 210 -1 230 19 26 26 26 72 0 95 -18 17 -55 18 -572 19 -358 1
-559 -3 -572 -9z"/>
<path d="M8724 2116 c-18 -14 -19 -36 -24 -723 -4 -531 -2 -716 7 -740 8 -21
21 -35 37 -39 36 -9 73 3 86 26 8 14 11 241 10 732 -1 790 2 758 -63 758 -18
0 -42 -6 -53 -14z"/>
<path d="M11261 2106 c-22 -24 -22 -24 -22 -722 1 -385 1 -706 1 -715 0 -8 9
-25 20 -37 28 -30 74 -29 105 2 24 24 24 24 23 589 0 310 2 570 6 576 4 6 14
11 22 11 28 0 91 -50 113 -91 13 -22 46 -68 75 -101 28 -33 65 -79 81 -103 17
-23 57 -75 90 -115 79 -96 118 -145 157 -200 17 -25 57 -74 88 -110 30 -36 67
-83 82 -105 14 -22 48 -65 75 -96 27 -31 62 -77 77 -102 15 -26 31 -47 36 -47
5 0 23 -21 41 -46 33 -49 81 -84 115 -84 11 0 31 11 43 24 23 24 23 24 22 736
0 473 -4 717 -11 730 -12 23 -50 35 -84 26 -13 -3 -28 -18 -35 -33 -7 -20 -10
-192 -7 -573 2 -337 -1 -550 -7 -557 -5 -7 -22 -13 -36 -13 -30 0 -79 45 -105
97 -9 17 -44 65 -78 106 -35 41 -88 107 -118 146 -30 40 -87 114 -127 164 -40
51 -89 114 -110 140 -21 27 -59 74 -85 104 -27 31 -48 60 -48 64 0 4 -17 28
-37 53 -21 25 -69 84 -108 132 -38 48 -89 106 -111 130 -35 38 -47 44 -81 44
-29 0 -46 -7 -62 -24z"/>
</g>
<g transform="translate(0.000000,219.840000) scale(0.012000,-0.012000)" fill="#f8c802" stroke="none">
<path d="M16858 17478 c-83 -29 -84 -32 -60 -135 11 -48 23 -113 27 -143 4
-30 27 -104 50 -165 54 -139 81 -226 95 -307 13 -75 85 -290 111 -334 10 -17
32 -86 48 -155 16 -68 37 -144 46 -169 9 -25 27 -91 40 -147 14 -57 33 -120
44 -141 11 -21 27 -78 35 -125 8 -47 28 -117 45 -154 34 -79 81 -223 111 -343
12 -47 52 -177 90 -290 37 -113 73 -236 80 -275 6 -38 25 -113 41 -165 73
-233 109 -351 130 -430 12 -47 32 -112 45 -145 12 -33 36 -96 53 -140 17 -44
39 -127 51 -185 27 -140 32 -162 64 -250 50 -137 76 -220 95 -308 11 -48 33
-122 50 -164 35 -87 70 -203 110 -363 16 -60 38 -132 51 -160 50 -112 91 -242
110 -350 12 -63 32 -145 45 -183 33 -95 41 -210 20 -282 -9 -30 -33 -121 -55
-202 -44 -168 -112 -399 -140 -475 -11 -28 -28 -87 -39 -130 -11 -43 -43 -148
-71 -233 -28 -85 -67 -211 -85 -280 -19 -69 -57 -190 -85 -270 -28 -80 -61
-190 -75 -246 -13 -55 -34 -123 -46 -150 -43 -99 -88 -252 -104 -354 -4 -25
-38 -137 -75 -250 -38 -113 -76 -245 -85 -295 -16 -85 -46 -187 -136 -455 -21
-63 -45 -144 -54 -180 -9 -36 -40 -130 -69 -210 -30 -80 -59 -172 -66 -205
-15 -78 -94 -329 -125 -400 -14 -30 -30 -88 -35 -128 -11 -78 -77 -297 -116
-389 -14 -31 -35 -112 -48 -180 -15 -77 -43 -173 -76 -257 -28 -73 -60 -172
-71 -220 -10 -47 -26 -112 -35 -143 -10 -41 -12 -63 -5 -76 6 -12 34 -26 70
-36 48 -14 111 -17 353 -17 161 -1 340 -2 398 -2 58 0 707 0 1443 1 977 1
1361 4 1420 13 65 10 87 17 108 38 28 28 47 85 73 216 9 44 33 125 55 180 23
59 50 156 66 235 19 100 37 160 69 230 45 98 76 192 96 294 7 32 21 84 32 115
85 242 119 353 133 435 17 107 27 141 95 311 28 72 54 157 63 212 25 141 44
208 99 333 33 75 56 149 69 213 18 96 65 248 115 375 14 35 32 103 40 150 14
80 38 152 102 307 13 33 33 107 44 165 10 58 50 199 89 315 38 115 74 239 80
275 5 36 25 103 44 150 48 120 92 262 110 355 16 80 77 278 120 390 13 33 31
98 40 144 9 46 26 104 37 130 42 95 88 243 88 280 0 21 -9 73 -21 117 -12 43
-29 111 -38 149 -10 39 -24 84 -33 100 -8 17 -23 69 -32 118 -9 48 -24 104
-33 125 -39 94 -113 325 -126 397 -8 44 -42 158 -76 253 -33 95 -69 216 -81
270 -11 53 -29 120 -39 147 -34 89 -110 329 -117 370 -4 22 -22 89 -40 148
-19 60 -34 117 -34 126 0 10 -12 40 -26 67 -14 27 -41 107 -60 179 -62 238
-83 309 -113 375 -17 36 -39 110 -50 165 -11 56 -45 173 -75 260 -30 88 -66
214 -81 280 -14 66 -39 154 -54 195 -43 111 -85 243 -142 445 -28 99 -68 232
-89 295 -21 63 -43 140 -49 172 -5 31 -21 83 -35 117 -15 33 -26 68 -26 76 0
9 -18 71 -39 138 -21 67 -48 165 -59 218 -11 53 -41 143 -65 200 -25 57 -50
131 -57 164 -6 33 -25 100 -42 148 -37 106 -49 114 -181 128 -57 6 -746 9
-1804 7 -1618 -2 -1715 -3 -1765 -20z"/>
</g>
</svg>